<svg width="66" height="66" viewBox="0 0 66 66" fill="none" xmlns="http://www.w3.org/2000/svg">
<rect x="0.461426" width="65.387" height="65.387" rx="16" fill="#FF9B53"/>
<path d="M38.7607 18.0427C38.1018 17.3904 37.2084 17.0239 36.2769 17.0239C35.3454 17.0239 34.452 17.3904 33.7931 18.0427L18.3656 33.3277C18.0393 33.651 17.7805 34.0347 17.6039 34.457C17.4273 34.8794 17.3364 35.332 17.3364 35.7891C17.3364 36.2462 17.4273 36.6989 17.6039 37.1212C17.7805 37.5435 18.0393 37.9273 18.3656 38.2505L20.1958 40.0621C20.9923 40.8527 22.112 40.7119 22.7882 40.3128C23.1612 40.0933 23.5973 40.0033 24.0277 40.0568C24.4582 40.1102 24.8584 40.3042 25.1651 40.6081C25.4718 40.912 25.6677 41.3085 25.7217 41.7349C25.7757 42.1613 25.6847 42.5934 25.4633 42.9629C25.0619 43.6328 24.9182 44.742 25.7162 45.531L27.5481 47.3442C27.8743 47.6674 28.2617 47.9238 28.688 48.0988C29.1143 48.2737 29.5712 48.3637 30.0326 48.3637C30.4941 48.3637 30.951 48.2737 31.3773 48.0988C31.8036 47.9238 32.1909 47.6674 32.5172 47.3442L47.9431 32.0622C48.2694 31.739 48.5282 31.3553 48.7048 30.9329C48.8814 30.5106 48.9723 30.058 48.9723 29.6009C48.9723 29.1437 48.8814 28.6911 48.7048 28.2688C48.5282 27.8464 48.2694 27.4627 47.9431 27.1395L46.1144 25.3263C45.318 24.5373 44.1968 24.6765 43.5206 25.0757C43.1476 25.2951 42.7114 25.3852 42.281 25.3317C41.8505 25.2782 41.4504 25.0842 41.1436 24.7803C40.8369 24.4764 40.641 24.08 40.587 23.6536C40.5331 23.2271 40.624 22.7951 40.8455 22.4255C41.2484 21.7557 41.3905 20.6464 40.5925 19.8574L38.7622 18.0427H38.7607Z" fill="white"/>
</svg>
