<svg width="66" height="66" viewBox="0 0 66 66" fill="none" xmlns="http://www.w3.org/2000/svg">
<rect x="0.383789" width="65.387" height="65.387" rx="16" fill="#FDBF00"/>
<path d="M19.6182 40.6668C19.6182 42.1335 20.2743 43.4502 21.3005 44.3668V46.5002C21.3005 47.8835 22.4277 49.0002 23.8241 49.0002C25.2204 49.0002 26.3476 47.8835 26.3476 46.5002V45.6668H39.8065V46.5002C39.8065 47.8668 40.9337 49.0002 42.3301 49.0002C43.7096 49.0002 44.8536 47.8835 44.8536 46.5002V44.3668C45.8799 43.4502 46.536 42.1335 46.536 40.6668V24.0002C46.536 18.1668 40.5131 17.3335 33.0771 17.3335C25.641 17.3335 19.6182 18.1668 19.6182 24.0002V40.6668ZM25.5064 42.3335C24.1101 42.3335 22.9829 41.2168 22.9829 39.8335C22.9829 38.4502 24.1101 37.3335 25.5064 37.3335C26.9028 37.3335 28.03 38.4502 28.03 39.8335C28.03 41.2168 26.9028 42.3335 25.5064 42.3335ZM40.6477 42.3335C39.2514 42.3335 38.1242 41.2168 38.1242 39.8335C38.1242 38.4502 39.2514 37.3335 40.6477 37.3335C42.0441 37.3335 43.1713 38.4502 43.1713 39.8335C43.1713 41.2168 42.0441 42.3335 40.6477 42.3335ZM43.1713 32.3335H22.9829V24.0002H43.1713V32.3335Z" fill="white"/>
</svg>
