<svg width="67" height="66" viewBox="0 0 67 66" fill="none" xmlns="http://www.w3.org/2000/svg">
<rect x="0.922852" width="65.387" height="65.387" rx="16" fill="#36DA76"/>
<path d="M42.0841 45.4382C42.0293 44.2648 41.9566 43.0976 41.8984 41.933C41.7102 38.2898 41.7256 34.5932 41.5288 30.932C41.3319 27.2982 41.4487 23.662 41.3448 20.0283C41.3239 19.2732 41.3576 17.7817 40.5762 17.3512C38.8952 16.4264 37.8973 18.949 37.4696 19.976C36.6987 21.8401 36.2533 23.8007 35.7027 25.732C35.2334 27.3851 34.6989 29.0328 34.5178 30.7444C34.3836 32.0287 34.3959 33.4664 35.0669 34.6236C35.4038 35.2052 35.9863 35.601 36.6496 35.7683C37.3381 35.9445 38.1252 35.7139 38.7784 36.0248C38.9468 36.1061 39.0952 36.2752 39.1628 36.4459C39.3745 36.9962 39.1742 37.831 39.108 38.3987C38.8983 40.2274 38.6766 42.0743 38.5773 43.9118C38.5186 45.023 38.4537 46.4462 39.1259 47.4144C39.538 48.0023 40.373 48.5513 41.1265 48.2591C42.2526 47.8281 42.1309 46.372 42.0841 45.4382Z" fill="white"/>
<path d="M27.7576 18.1624C27.4339 18.2921 27.5567 19.4492 27.5422 19.8047C27.521 20.4434 27.5646 21.2886 27.4877 22.1163C27.4872 22.1237 27.4861 22.1289 27.485 22.134C27.4784 22.1915 27.473 22.2536 27.4635 22.3191C27.4534 22.3824 27.4427 22.4434 27.4349 22.506C27.366 22.9096 27.2346 23.3875 26.9864 23.6167C26.7045 23.8787 26.073 23.8236 25.8537 23.514C25.4948 23.0099 25.5217 21.8845 25.4999 21.8513C25.4853 21.3189 25.4078 19.7086 25.2914 18.6469C25.2818 18.5669 25.2663 18.0857 24.8269 18.0343C24.6221 18.012 24.4065 18.1866 24.3366 18.5055C24.1302 19.4468 23.937 21.2411 23.9248 21.5233C23.9223 21.5506 23.9211 21.5825 23.921 21.6092C23.921 21.6092 23.9199 21.6143 23.9205 21.6166C23.9192 21.6751 23.8494 23.0809 23.4937 23.5659C23.3078 23.8202 22.8251 24.0201 22.3454 23.7511C22.1543 23.6428 22.0234 23.434 21.9311 23.2104C21.4294 21.649 21.8797 19.929 21.9438 19.1094C21.9628 18.8789 22.1715 18.1092 21.7058 18.1349C21.0046 18.173 20.099 21.1607 19.9371 21.8455C19.5401 23.5493 19.4799 25.3699 20.1704 27.0134C20.5541 27.9236 21.3043 28.6686 22.2347 29.0298C22.6459 29.188 23.1028 29.3028 23.5867 29.3694C23.4126 33.2428 23.2149 37.2848 23.0349 39.5342C22.8965 41.227 22.733 42.9385 22.755 44.6383C22.768 45.6539 22.7573 46.8649 23.424 47.7164C24.1213 48.6061 25.5923 48.1968 25.9894 47.1456C26.4349 45.9605 26.3053 44.5796 26.1536 42.4037C26.0013 40.2256 25.8299 37.2543 25.7354 35.6557C25.5971 33.3017 25.5488 31.2447 25.5356 29.3679C26.7742 29.1909 27.9295 28.6594 28.576 27.682C28.8597 27.2545 29.0464 26.7768 29.174 26.2853C29.3696 25.5408 29.465 24.7253 29.4227 23.9574C29.3798 23.2504 28.7987 17.7453 27.7576 18.1624Z" fill="white"/>
</svg>
