<svg width="119" height="24" viewBox="0 0 119 24" fill="none" xmlns="http://www.w3.org/2000/svg">
<line x1="5.54297" y1="11.8315" x2="109.095" y2="11.8316" stroke="#CCCCCC" stroke-dasharray="3 3"/>
<path d="M58.1233 21.75H56.7578C56.6206 21.75 56.4856 21.7185 56.3652 21.6585C56.2447 21.5984 56.1427 21.5118 56.0683 21.4064C55.994 21.301 55.9497 21.1803 55.9396 21.0552C55.9295 20.9302 55.9539 20.8048 56.0105 20.6906L59.3169 14.0227L54.3522 13.9219L52.5415 15.9267C52.1963 16.3233 51.9208 16.5 51.2181 16.5H50.2989C50.1534 16.5043 50.0089 16.4764 49.8776 16.4188C49.7464 16.3612 49.6322 16.2755 49.5449 16.1691C49.4228 16.0186 49.3028 15.7636 49.4198 15.3998L50.4364 12.0717C50.4441 12.0469 50.4533 12.022 50.4636 11.9977C50.4641 11.9953 50.4641 11.9929 50.4636 11.9906C50.453 11.9663 50.4439 11.9414 50.4364 11.9161L49.4187 8.56687C49.3085 8.21016 49.429 7.96078 49.55 7.81406C49.6313 7.71549 49.7368 7.63573 49.858 7.58118C49.9791 7.52664 50.1126 7.49883 50.2476 7.5H51.2181C51.7428 7.5 52.2522 7.71516 52.5518 8.0625L54.325 10.0336L59.3169 9.96609L56.0115 3.30984C55.9548 3.19568 55.9304 3.07036 55.9404 2.94533C55.9504 2.8203 55.9945 2.69956 56.0688 2.59414C56.143 2.48872 56.245 2.40198 56.3653 2.34186C56.4857 2.28175 56.6207 2.25016 56.7578 2.25H58.1381C58.3307 2.25354 58.5199 2.29667 58.6918 2.3762C58.8636 2.45572 59.0136 2.5696 59.1307 2.70937L65.545 9.83438L68.5082 9.76312C68.7252 9.75234 69.3263 9.74859 69.4653 9.74859C72.2998 9.75 73.9925 10.5909 73.9925 12C73.9925 12.4434 73.7986 13.2656 72.5014 13.7887C71.7356 14.0981 70.7138 14.2547 69.4643 14.2547C69.3268 14.2547 68.7272 14.2509 68.5072 14.2402L65.5444 14.168L59.1143 21.293C58.9971 21.4321 58.8472 21.5454 58.6757 21.6246C58.5042 21.7037 58.3154 21.7465 58.1233 21.75Z" fill="#1262AE"/>
<circle cx="5.80176" cy="12.3315" r="4" fill="white" stroke="#1262AE" stroke-width="2"/>
<circle cx="113.152" cy="11.9146" r="4" fill="white" stroke="#1262AE" stroke-width="2"/>
</svg>
