<svg width="174" height="33" viewBox="0 0 174 33" fill="none" xmlns="http://www.w3.org/2000/svg">
<g clip-path="url(#clip0_1016_12786)">
<path d="M129.851 8.05902C131.214 8.05902 132.452 8.23242 133.564 8.5792C134.676 8.92599 135.615 9.37442 136.38 9.92449C136.858 10.2593 137.235 10.63 137.51 11.0366C137.785 11.4432 137.923 11.9693 137.923 12.6151V25.1711L137.917 25.5125C137.877 26.6362 137.64 27.6166 137.205 28.4536C136.727 29.3744 136.075 30.1397 135.25 30.7496C134.425 31.3595 133.456 31.8079 132.344 32.0949C131.232 32.3819 130.042 32.5254 128.775 32.5254C126.598 32.5254 124.888 32.2324 123.645 31.6465C122.401 31.0605 121.779 30.1098 121.779 28.7944C121.779 28.2444 121.893 27.7601 122.12 27.3415C122.347 26.923 122.604 26.6061 122.891 26.3909C123.585 26.7735 124.368 27.0964 125.241 27.3595C126.114 27.6226 127.017 27.7541 127.95 27.7541C129.241 27.7541 130.269 27.5388 131.035 27.1084C131.8 26.6779 132.183 25.9843 132.183 25.0276V24.4536L131.91 24.5657C130.983 24.9215 129.878 25.0994 128.595 25.0994C127.519 25.0994 126.497 24.9379 125.528 24.6151C124.559 24.2922 123.71 23.79 122.981 23.1084C122.251 22.4267 121.665 21.5478 121.223 20.4716C120.781 19.3953 120.559 18.1158 120.559 16.633C120.559 15.1741 120.793 13.9066 121.259 12.8303C121.725 11.7541 122.371 10.8632 123.196 10.1577C124.021 9.45215 125.002 8.92599 126.138 8.5792C127.274 8.23242 128.512 8.05902 129.851 8.05902ZM33.2869 8.61594C35.4197 8.61594 37.165 9.09452 38.5227 10.0517C39.8804 11.0088 40.6841 12.6995 40.9338 15.1236H36.3769L36.3333 14.8554C36.2301 14.3267 36.0313 13.8439 35.737 13.407C35.2377 12.7203 34.4626 12.377 33.4118 12.377C31.9136 12.377 30.8888 13.1208 30.3374 14.6086C30.0461 15.3993 29.9004 16.4501 29.9004 17.761C29.9004 19.0095 30.0461 20.0134 30.3374 20.7729C30.868 22.1879 31.8668 22.8953 33.3337 22.8953C34.3741 22.8953 35.1128 22.6144 35.5498 22.0526C35.9867 21.4908 36.252 20.7625 36.3457 19.8678H40.887L40.8561 20.1786C40.7054 21.4167 40.2267 22.5928 39.42 23.7068C38.0259 25.6524 35.9607 26.6251 33.2245 26.6251C30.4883 26.6251 28.4751 25.8136 27.185 24.1906C25.8949 22.5676 25.2499 20.4608 25.2499 17.8702C25.2499 14.9467 25.9626 12.6735 27.3879 11.0505C28.8132 9.42745 30.7796 8.61594 33.2869 8.61594ZM74.6185 8.56913C76.0334 8.56913 77.3079 8.83442 78.4419 9.36503C79.5759 9.89563 80.5123 10.7331 81.251 11.8776C81.9168 12.8868 82.3486 14.0572 82.5462 15.3889C82.6607 16.1692 82.7075 17.2928 82.6867 18.7598H71.0447L71.0606 19.0556C71.1718 20.605 71.7023 21.7029 72.6521 22.3491C73.2659 22.7757 74.0046 22.989 74.8681 22.989C75.7837 22.989 76.5276 22.7289 77.0998 22.2087C77.4119 21.9278 77.6876 21.5376 77.9269 21.0382H82.4682L82.4345 21.2714C82.2705 22.2052 81.7563 23.1522 80.892 24.1126C79.4355 25.7668 77.3963 26.5939 74.7745 26.5939C72.6105 26.5939 70.7014 25.8969 69.0471 24.5027C67.3929 23.1086 66.5658 20.8406 66.5658 17.6986C66.5658 14.7543 67.3123 12.4966 68.8053 10.9256C70.2982 9.35462 72.236 8.56913 74.6185 8.56913ZM105.848 2.31911C106.374 2.31911 106.846 2.35499 107.265 2.42674C107.683 2.49848 108.036 2.64198 108.323 2.85723C108.61 3.07248 108.831 3.36545 108.987 3.73615C109.142 4.10686 109.22 4.59116 109.22 5.18907V25.9962L109.099 26.0178C108.843 26.0632 108.495 26.1218 108.054 26.1936C107.54 26.2773 107.019 26.3191 106.493 26.3191C105.967 26.3191 105.495 26.2832 105.076 26.2115C104.658 26.1397 104.305 25.9962 104.018 25.781C103.731 25.5658 103.51 25.2728 103.354 24.9021C103.199 24.5314 103.121 24.0471 103.121 23.4492V2.64198L103.242 2.62038C103.498 2.57499 103.846 2.51642 104.287 2.44467C104.801 2.36097 105.321 2.31911 105.848 2.31911ZM115.015 8.52539C115.541 8.52539 116.014 8.56126 116.432 8.63301C116.851 8.70476 117.203 8.84826 117.49 9.06351C117.777 9.27875 117.999 9.57173 118.154 9.94243C118.31 10.3131 118.387 10.7974 118.387 11.3953V25.9962L118.267 26.0178C118.011 26.0632 117.662 26.1218 117.221 26.1936C116.707 26.2773 116.187 26.3191 115.661 26.3191C115.135 26.3191 114.662 26.2832 114.244 26.2115C113.825 26.1397 113.473 25.9962 113.186 25.781C112.899 25.5658 112.677 25.2728 112.522 24.9021C112.366 24.5314 112.289 24.0471 112.289 23.4492V8.84826L112.409 8.82666C112.665 8.78127 113.014 8.7227 113.455 8.65095C113.969 8.56724 114.489 8.52539 115.015 8.52539ZM143.574 2.31911C144.101 2.31911 144.573 2.35499 144.991 2.42674C145.41 2.49848 145.763 2.64198 146.05 2.85723C146.337 3.07248 146.558 3.36545 146.713 3.73615C146.869 4.10686 146.947 4.59116 146.947 5.18907V8.70476L147.071 8.65908C147.378 8.55052 147.809 8.42823 148.364 8.29221C148.997 8.13675 149.697 8.05902 150.462 8.05902C152.83 8.05902 154.678 8.65095 156.005 9.83481C157.332 11.0187 157.996 12.7825 157.996 15.1263V25.9962L157.885 26.027C157.646 26.0885 157.307 26.15 156.866 26.2115C156.352 26.2832 155.82 26.3191 155.27 26.3191C154.743 26.3191 154.271 26.2832 153.852 26.2115C153.434 26.1397 153.081 25.9962 152.794 25.781C152.507 25.5658 152.286 25.2728 152.131 24.9021C151.975 24.5314 151.897 24.0471 151.897 23.4492V15.485L151.893 15.2639C151.858 14.4004 151.614 13.7865 151.162 13.4223C150.672 13.0276 150.068 12.8303 149.35 12.8303C148.872 12.8303 148.417 12.8901 147.987 13.0097C147.557 13.1293 147.21 13.2728 146.947 13.4402V25.9962L146.836 26.027C146.597 26.0885 146.257 26.15 145.817 26.2115C145.302 26.2832 144.77 26.3191 144.22 26.3191C143.694 26.3191 143.222 26.2832 142.803 26.2115C142.385 26.1397 142.032 25.9962 141.745 25.781C141.458 25.5658 141.237 25.2728 141.081 24.9021C140.926 24.5314 140.848 24.0471 140.848 23.4492V2.64198L140.968 2.62038C141.225 2.57499 141.573 2.51642 142.014 2.44467C142.528 2.36097 143.048 2.31911 143.574 2.31911ZM100.626 4.29221L100.708 4.43122C100.843 4.67537 100.965 4.98179 101.075 5.3505C101.206 5.79295 101.272 6.25334 101.272 6.73167C101.272 7.6644 101.075 8.32808 100.68 8.7227C100.285 9.11732 99.7533 9.31463 99.0836 9.31463H91.55V13.3684H99.4065L99.4997 13.507C99.6508 13.7494 99.7812 14.0501 99.8908 14.4088C100.022 14.8393 100.088 15.2937 100.088 15.772C100.088 16.6808 99.8908 17.3326 99.4962 17.7272C99.1016 18.1218 98.5694 18.3191 97.8998 18.3191H91.6217V25.8886L91.4998 25.9194C91.2377 25.9809 90.8658 26.0424 90.3841 26.1039C89.822 26.1756 89.266 26.2115 88.7159 26.2115C88.1658 26.2115 87.6815 26.1696 87.263 26.0859C86.8445 26.0022 86.4917 25.8527 86.2047 25.6375C85.9177 25.4223 85.7025 25.1233 85.559 24.7406C85.4155 24.358 85.3437 23.8557 85.3437 23.2339V7.62853L85.3499 7.37591C85.3956 6.4661 85.6925 5.73715 86.2406 5.18907C86.8385 4.59116 87.6516 4.29221 88.68 4.29221H100.626ZM16.3082 3.06025V7.10217H4.7754V12.3926H14.8724V16.3877H4.7754V26.0321H0V3.06025H16.3082ZM22.8234 9.0217V26.0321H18.3133V9.0217H22.8234ZM47.4022 3.10706V15.4981L52.9423 9.09973H58.4512L52.5054 15.6074L58.6853 26.0321H53.3169L49.2437 18.7598L47.4022 20.6793V26.0321H43.0326V3.10706H47.4022ZM64.4827 3.02903V26.0321H60.035V3.02903H64.4827ZM158.328 4.14468C159.074 3.92049 160.346 3.87062 161.836 4.52933C163.339 5.19431 164.277 6.3349 164.649 7.95111L172.721 8.63713C172.821 8.64293 172.92 8.66318 173.019 8.69788C173.167 8.74994 173.247 8.82318 173.314 8.88051C173.478 9.02108 173.531 9.12947 173.609 9.32356C173.748 9.66868 173.706 10.0749 173.525 10.3534C173.233 10.8025 172.777 11.093 172.156 11.225L165.639 12.6101L166.79 18.0217C166.922 18.6429 167.213 19.043 167.663 19.2221C168.113 19.4011 168.696 19.4144 169.413 19.2621C169.772 19.1859 170.135 19.0773 170.505 18.9363C170.875 18.7953 171.193 18.6466 171.459 18.4901C171.73 18.7072 171.977 18.9605 172.201 19.25C172.425 19.5396 172.585 19.9113 172.682 20.3653C173.038 22.0434 170.397 23.6288 168.666 23.94C167.062 24.2281 164.602 24.4675 163.195 20.7828C161.789 17.098 159.58 10.9216 157.894 5.77439C157.748 5.3302 157.658 4.89393 157.814 4.53393C157.899 4.33934 157.96 4.25535 158.328 4.14468ZM130.138 12.8303C128.966 12.8303 128.087 13.1592 127.501 13.8169C126.915 14.4746 126.622 15.4133 126.622 16.633C126.622 18.0202 126.915 19.0187 127.501 19.6285C128.087 20.2384 128.834 20.5433 129.743 20.5433C130.724 20.5433 131.501 20.3161 132.075 19.8617V13.2608L131.965 13.2034C131.806 13.1269 131.598 13.0504 131.34 12.9738C131.017 12.8782 130.616 12.8303 130.138 12.8303ZM74.6185 12.2365C73.5885 12.2365 72.79 12.559 72.2229 13.2041C71.6559 13.8491 71.2996 14.723 71.1539 15.8259H78.0674C77.9945 14.6502 77.6382 13.7581 76.9984 13.1495C76.3585 12.5408 75.5652 12.2365 74.6185 12.2365ZM22.8234 2.88858V6.99293H18.3133V2.88858H22.8234ZM115.338 0.525391C116.342 0.525391 117.15 0.836302 117.76 1.45813C118.369 2.07995 118.674 2.84527 118.674 3.75409C118.674 4.66291 118.369 5.42823 117.76 6.05005C117.15 6.67188 116.342 6.98279 115.338 6.98279C114.334 6.98279 113.526 6.67188 112.916 6.05005C112.307 5.42823 112.002 4.66291 112.002 3.75409C112.002 2.84527 112.307 2.07995 112.916 1.45813C113.526 0.836302 114.334 0.525391 115.338 0.525391Z" fill="white"/>
</g>
<defs>
<clipPath id="clip0_1016_12786">
<rect width="174" height="33" fill="white"/>
</clipPath>
</defs>
</svg>
