<svg width="66" height="66" viewBox="0 0 66 66" fill="none" xmlns="http://www.w3.org/2000/svg">
<rect width="65.387" height="65.387" rx="16" fill="#F9668D"/>
<path d="M31.5492 28.1561H33.8394V27.0217C33.8394 26.7208 33.9601 26.4323 34.1748 26.2196C34.3896 26.0068 34.6808 25.8873 34.9845 25.8873H38.4199C38.7236 25.8873 39.0148 26.0068 39.2296 26.2196C39.4443 26.4323 39.565 26.7208 39.565 27.0217V28.1561H44.1454V23.6186C44.1454 22.4151 43.6629 21.261 42.8039 20.4101C41.9449 19.5591 40.7798 19.0811 39.565 19.0811H25.8236C24.6088 19.0811 23.4438 19.5591 22.5847 20.4101C21.7257 21.261 21.2432 22.4151 21.2432 23.6186V28.1561H25.8236V27.0217C25.8236 26.7208 25.9443 26.4323 26.159 26.2196C26.3738 26.0068 26.665 25.8873 26.9687 25.8873H30.4041C30.7078 25.8873 30.999 26.0068 31.2138 26.2196C31.4285 26.4323 31.5492 26.7208 31.5492 27.0217V28.1561Z" fill="white"/>
<path d="M22.3884 30.4248C20.87 30.4248 19.4137 31.0224 18.34 32.0861C17.2663 33.1497 16.6631 34.5924 16.6631 36.0967V45.1717C16.6631 45.4726 16.7837 45.7611 16.9985 45.9738C17.2132 46.1866 17.5045 46.3061 17.8082 46.3061C18.1118 46.3061 18.4031 46.1866 18.6178 45.9738C18.8326 45.7611 18.9532 45.4726 18.9532 45.1717V39.4998H46.4348V45.1717C46.4348 45.4726 46.5554 45.7611 46.7702 45.9738C46.9849 46.1866 47.2762 46.3061 47.5798 46.3061C47.8835 46.3061 48.1748 46.1866 48.3895 45.9738C48.6043 45.7611 48.7249 45.4726 48.7249 45.1717V36.0967C48.7249 34.5924 48.1217 33.1497 47.048 32.0861C45.9743 31.0224 44.518 30.4248 42.9996 30.4248H22.3884Z" fill="white"/>
</svg>
