<svg width="30" height="31" viewBox="0 0 30 31" fill="none" xmlns="http://www.w3.org/2000/svg">
<g clip-path="url(#clip0_1003_4185)">
<path d="M19.5001 15.3871C19.5001 16.5805 19.026 17.7251 18.1821 18.569C17.3382 19.413 16.1936 19.8871 15.0001 19.8871C13.8066 19.8871 12.662 19.413 11.8181 18.569C10.9742 17.7251 10.5001 16.5805 10.5001 15.3871C10.5001 15.1306 10.5271 14.8801 10.5736 14.6371H9.0001V20.6326C9.0001 21.0496 9.3376 21.3871 9.7546 21.3871H20.2471C20.4469 21.3867 20.6385 21.307 20.7796 21.1655C20.9208 21.0241 21.0001 20.8324 21.0001 20.6326V14.6371H19.4266C19.4731 14.8801 19.5001 15.1306 19.5001 15.3871ZM15.0001 18.3871C15.3942 18.387 15.7844 18.3092 16.1484 18.1584C16.5124 18.0075 16.8432 17.7863 17.1217 17.5076C17.4003 17.2289 17.6213 16.8981 17.772 16.534C17.9227 16.1698 18.0002 15.7796 18.0001 15.3856C18 14.9915 17.9223 14.6013 17.7714 14.2373C17.6205 13.8733 17.3994 13.5425 17.1207 13.2639C16.842 12.9854 16.5111 12.7644 16.147 12.6137C15.7829 12.463 15.3927 12.3855 14.9986 12.3856C14.2028 12.3858 13.4396 12.7021 12.877 13.265C12.3144 13.8279 11.9984 14.5912 11.9986 15.3871C11.9988 16.1829 12.3151 16.9461 12.878 17.5087C13.4409 18.0713 14.2043 18.3873 15.0001 18.3871ZM18.6001 12.2371H20.3986C20.5181 12.2371 20.6327 12.1897 20.7173 12.1053C20.802 12.021 20.8497 11.9065 20.8501 11.7871V9.98856C20.8501 9.86882 20.8025 9.75397 20.7179 9.6693C20.6332 9.58463 20.5183 9.53706 20.3986 9.53706H18.6001C18.4804 9.53706 18.3655 9.58463 18.2808 9.6693C18.1962 9.75397 18.1486 9.86882 18.1486 9.98856V11.7871C18.1501 12.0346 18.3526 12.2371 18.6001 12.2371ZM15.0001 0.987061C11.181 0.987061 7.51828 2.5042 4.81776 5.20472C2.11724 7.90525 0.600098 11.5679 0.600098 15.3871C0.600098 19.2062 2.11724 22.8689 4.81776 25.5694C7.51828 28.2699 11.181 29.7871 15.0001 29.7871C16.8911 29.7871 18.7637 29.4146 20.5107 28.6909C22.2578 27.9673 23.8453 26.9066 25.1824 25.5694C26.5196 24.2322 27.5803 22.6448 28.304 20.8977C29.0276 19.1506 29.4001 17.2781 29.4001 15.3871C29.4001 13.496 29.0276 11.6235 28.304 9.87642C27.5803 8.12933 26.5196 6.54189 25.1824 5.20472C23.8453 3.86756 22.2578 2.80686 20.5107 2.0832C18.7637 1.35953 16.8911 0.987061 15.0001 0.987061ZM22.5001 21.2206C22.5001 22.1371 21.7501 22.8871 20.8336 22.8871H9.1666C8.2501 22.8871 7.5001 22.1371 7.5001 21.2206V9.55356C7.5001 8.63706 8.2501 7.88706 9.1666 7.88706H20.8336C21.7501 7.88706 22.5001 8.63706 22.5001 9.55356V21.2206Z" fill="white"/>
</g>
<defs>
<clipPath id="clip0_1003_4185">
<rect width="30" height="30" fill="white" transform="translate(0 0.386963)"/>
</clipPath>
</defs>
</svg>
