<svg width="35" height="46" viewBox="0 0 35 46" fill="none" xmlns="http://www.w3.org/2000/svg">
<path fill-rule="evenodd" clip-rule="evenodd" d="M34.5003 25.9754C34.6779 24.992 34.7671 23.9953 34.7668 22.9966C34.7668 22.3817 34.7328 21.8029 34.6673 21.2507C34.6533 21.131 32.6708 25.1057 29.499 27.6234C31.7055 25.6901 34.5837 20.646 34.5431 20.4273C34.5082 20.2375 34.4688 20.0485 34.4249 19.8605C34.0457 18.2335 33.3618 16.7873 32.4298 15.2151C32.141 18.5516 31.1317 22.1061 28.4836 25.1798C31.2319 21.9544 32.1881 14.6083 31.5332 13.5966C28.8972 9.55464 23.3466 6.01697 17.4042 6.01697L17.3624 6.12364V6.02444C11.4198 6.02444 5.86962 9.5619 3.23362 13.6036C2.57854 14.6153 3.53474 21.9615 6.283 25.1868C3.63511 22.1132 2.62565 18.5587 2.33706 15.2221C1.40442 16.7945 0.720906 18.2404 0.341696 19.8676C0.29781 20.0556 0.2584 20.2445 0.223498 20.4343C0.182967 20.653 3.06131 25.6971 5.26781 27.6304C2.09578 25.1125 0.113364 21.1378 0.0991467 21.2578C0.0316613 21.8374 -0.00142737 22.4203 4.71829e-05 23.0037C4.71829e-05 24.0199 0.091295 25.0152 0.266364 25.9825C0.428276 26.8771 4.11491 29.3402 4.2104 29.4176C1.53259 28.3945 0.427003 26.7854 0.527588 27.1741C2.42852 34.5352 9.24474 39.9831 17.3624 39.9831V39.9754L17.4042 39.9758C25.5219 39.9758 32.3381 34.5283 34.2388 27.1668C34.3396 26.7781 33.2342 28.3873 30.5562 29.4104C30.6515 29.3332 34.3381 26.8703 34.5003 25.9754ZM23.0168 26.6291C22.8415 26.7036 22.6641 26.7677 22.4825 26.8159C20.8179 27.2594 18.5036 27.0965 17.4216 25.7141C16.3271 24.3158 16.6301 22.0476 17.481 20.6159C18.3402 19.1705 19.63 18.0963 20.7761 16.8798C21.3252 16.2995 21.8847 15.7285 22.4543 15.1673C22.8239 14.8015 23.8327 14.0174 23.8119 13.4945C23.8024 13.2469 23.3423 12.8107 23.2144 12.5764C23.0278 12.235 22.9113 11.893 22.7117 11.5678C22.2699 10.8498 21.6767 10.5209 20.878 10.3669C19.8796 10.1745 19.1634 10.2602 18.3364 10.8019C17.7142 11.2094 17.0666 11.9694 16.3067 12.0495C15.106 12.1761 9.87753 13.0238 9.62989 13.177C10.2748 13.1303 18.1586 13.2795 19.0518 13.4945C20.102 13.7473 20.0544 14.5749 19.3414 15.2259C17.0991 17.2727 13.7959 18.4908 12.3877 21.3072C11.729 22.6239 11.3065 23.5154 11.3048 25.0555C11.3042 25.6901 11.3549 26.9923 12.1566 28.6093C12.1195 28.5855 10.8895 27.1668 10.8401 25.9667C7.87305 24.0264 6.36406 21.1247 6.36406 17.3486C6.36406 11.363 11.2798 6.51046 17.3435 6.51046C23.4073 6.51046 28.3228 11.3628 28.3228 17.3486C28.3232 21.2847 26.6026 24.9258 23.0168 26.6291Z" fill="#B4282E"/>
<path fill-rule="evenodd" clip-rule="evenodd" d="M17.8187 29.9171L16.3863 33.7661C15.5607 35.9843 12.0559 35.5182 11.9326 35.5182C11.6446 35.5182 11.4244 35.4871 11.2041 35.2835L11.7287 34.7124C11.8537 34.8064 12.0493 34.8612 12.2492 34.8612C12.4126 34.8612 14.2134 35.2434 14.7503 33.7661L16.1826 29.9171H17.8187ZM27.9337 34.7437L27.692 35.3931H22.7639L24.802 29.9171H26.4557L24.6589 34.7437H27.9337ZM20.5869 29.9308L16.2208 35.4063H17.0688L18.174 33.9201H20.1517L19.8222 35.4063H21.5641L22.9021 29.9308H20.5869ZM18.7495 33.1435L21.002 30.4478L20.3815 33.1435H18.7495Z" fill="white"/>
</svg>
