<svg width="66" height="66" viewBox="0 0 66 66" fill="none" xmlns="http://www.w3.org/2000/svg">
<rect x="0.612793" width="65.387" height="65.387" rx="16" fill="#79CA00"/>
<path d="M43.7497 21.0537H22.8624C21.4225 21.0537 20.2515 22.2138 20.2515 23.6403V41.7462C20.2515 43.1727 21.4225 44.3327 22.8624 44.3327H43.7497C45.1896 44.3327 46.3606 43.1727 46.3606 41.7462V23.6403C46.3606 22.2138 45.1896 21.0537 43.7497 21.0537ZM43.751 28.8134C43.7497 28.8134 43.7497 28.8134 43.751 28.8134H43.1439L39.6623 23.6403H43.7497L43.751 28.8134ZM37.8751 36.5731L30.6951 40.4529V32.6932L37.8751 36.5731ZM36.6167 28.8134L33.135 23.6403H36.524L40.0056 28.8134H36.6167ZM33.4784 28.8134H30.0894L26.6077 23.6403H29.9967L33.4784 28.8134ZM22.8624 23.6403H23.4694L26.9511 28.8134H22.8624V23.6403Z" fill="white"/>
</svg>
