<svg width="24" height="25" viewBox="0 0 24 25" fill="none" xmlns="http://www.w3.org/2000/svg">
<path d="M21.6732 19.0531C21.0303 18.48 20.4675 17.823 19.9999 17.0998C19.4894 16.1015 19.1834 15.0113 19.0999 13.8931V10.5998C19.1043 8.84351 18.4672 7.14609 17.3084 5.82642C16.1495 4.50675 14.5486 3.65568 12.8065 3.43311V2.57311C12.8065 2.33706 12.7128 2.11069 12.5459 1.94378C12.379 1.77687 12.1526 1.68311 11.9165 1.68311C11.6805 1.68311 11.4541 1.77687 11.2872 1.94378C11.1203 2.11069 11.0265 2.33706 11.0265 2.57311V3.44644C9.30004 3.68506 7.71852 4.54128 6.57489 5.85651C5.43126 7.17174 4.80302 8.85687 4.80654 10.5998V13.8931C4.72304 15.0113 4.41705 16.1015 3.90654 17.0998C3.44712 17.8213 2.89333 18.4783 2.25987 19.0531C2.18876 19.1156 2.13176 19.1925 2.09268 19.2787C2.0536 19.3649 2.03332 19.4585 2.0332 19.5531V20.4598C2.0332 20.6366 2.10344 20.8062 2.22847 20.9312C2.35349 21.0562 2.52306 21.1264 2.69987 21.1264H21.2332C21.41 21.1264 21.5796 21.0562 21.7046 20.9312C21.8296 20.8062 21.8999 20.6366 21.8999 20.4598V19.5531C21.8997 19.4585 21.8795 19.3649 21.8404 19.2787C21.8013 19.1925 21.7443 19.1156 21.6732 19.0531ZM3.41987 19.7931C4.04014 19.1939 4.58627 18.5224 5.04654 17.7931C5.68961 16.5874 6.06482 15.2571 6.14654 13.8931V10.5998C6.1201 9.81846 6.25115 9.03982 6.5319 8.31022C6.81265 7.58061 7.23734 6.91496 7.7807 6.35291C8.32406 5.79085 8.97496 5.34388 9.69466 5.03862C10.4143 4.73336 11.1881 4.57604 11.9699 4.57604C12.7516 4.57604 13.5254 4.73336 14.2451 5.03862C14.9648 5.34388 15.6157 5.79085 16.159 6.35291C16.7024 6.91496 17.1271 7.58061 17.4078 8.31022C17.6886 9.03982 17.8196 9.81846 17.7932 10.5998V13.8931C17.8749 15.2571 18.2501 16.5874 18.8932 17.7931C19.3535 18.5224 19.8996 19.1939 20.5199 19.7931H3.41987Z" fill="#424242"/>
<path d="M12 23.3135C12.42 23.3038 12.823 23.1459 13.1378 22.8677C13.4526 22.5896 13.6588 22.209 13.72 21.7935H10.2134C10.2764 22.2203 10.4923 22.6098 10.8209 22.8894C11.1496 23.169 11.5686 23.3197 12 23.3135Z" fill="#424242"/>
<circle cx="18.4565" cy="5.93701" r="3.5" fill="#F99A0E" stroke="white"/>
</svg>
