<svg width="35" height="46" viewBox="0 0 35 46" fill="none" xmlns="http://www.w3.org/2000/svg">
<path d="M10.8822 42.1249H7.53702L14.2958 31.9451C14.2958 31.9451 15.3057 29.8368 13.9855 27.6081L4.56526 12.7199C4.56526 12.7199 3.73947 11.3395 4.56526 10.0143L7.35293 6.03369L18.409 23.2711C18.409 23.2711 21.2597 26.8803 18.1617 31.3528L10.8822 42.1249Z" fill="#FCB130"/>
<path d="M18.9612 39.0026L23.0691 33.0292C23.0691 33.0292 24.2683 30.5646 27.3663 30.5646H31.7266L34.7668 35.1375C34.7668 35.1375 32.3683 34.9016 31.2953 36.533L26.814 42.9832C26.814 42.9832 25.3518 46 21.4438 46H0.331111L8.36277 34.234C8.36277 34.234 9.49888 32.8536 7.91043 30.5646L0.762412 19.6017C0.762412 19.6017 -0.994349 17.9804 0.825529 15.2045L2.91365 12.1877L12.8441 27.5528C12.8441 27.5528 14.6008 29.6611 12.8441 32.191L5.38574 43.2894H21.1124C21.1124 43.2894 22.885 43.6006 24.4103 41.4321L28.3183 35.6947C28.3183 35.6947 29.2072 33.7621 31.1691 32.974H28.008C28.008 32.974 26.3564 33.0343 25.0993 34.9066L21.6279 40.0316C21.6279 40.0316 20.3655 42.2001 17.5779 42.2001H12.0814L18.714 32.3767C18.714 32.3767 22.3274 27.844 19.787 23.6827L8.79407 6.32977C8.79407 6.32977 7.96829 4.8289 8.9203 3.43343L11.3188 0L23.837 19.2403C23.837 19.2403 25.6726 22.1216 25.6726 24.3503C25.6726 26.579 24.2104 29.1039 23.4004 30.3839L17.8882 38.586C17.8882 38.586 17.2675 39.3741 17.7041 39.6702C18.1512 39.9664 18.5877 39.4343 18.9612 39.0026Z" fill="#FCB130"/>
</svg>
