<svg width="17" height="18" viewBox="0 0 17 18" fill="none" xmlns="http://www.w3.org/2000/svg">
<path d="M16.1058 6.43948L11.1163 5.65526L8.88591 0.765024C8.825 0.631132 8.72477 0.522744 8.60097 0.45686C8.29048 0.29109 7.91317 0.429232 7.75793 0.765024L5.5275 5.65526L0.538023 6.43948C0.400464 6.46074 0.274695 6.53087 0.178403 6.63713C0.0619923 6.76653 -0.00215557 6.94062 5.53105e-05 7.12115C0.00226619 7.30167 0.0706549 7.47386 0.190194 7.59988L3.80015 11.4062L2.94728 16.781C2.92728 16.9061 2.94007 17.0346 2.98421 17.1522C3.02834 17.2698 3.10205 17.3716 3.19698 17.4462C3.29191 17.5208 3.40426 17.5651 3.52129 17.5741C3.63832 17.5831 3.75535 17.5565 3.8591 17.4972L8.32192 14.9597L12.7847 17.4972C12.9066 17.5674 13.0481 17.5908 13.1837 17.5653C13.5256 17.5015 13.7555 17.1508 13.6966 16.781L12.8437 11.4062L16.4536 7.59988C16.5519 7.49574 16.6168 7.35972 16.6364 7.21096C16.6895 6.83903 16.4497 6.49474 16.1058 6.43948Z" fill="#FDBF00"/>
</svg>
