<svg width="71" height="66" viewBox="0 0 71 66" fill="none" xmlns="http://www.w3.org/2000/svg">
<rect x="0.845215" width="70" height="65.387" rx="16" fill="#4DABFF"/>
<path d="M46.7504 23.7646C46.4352 22.9042 45.5527 22.2917 44.5125 22.2917H40.5727V20.8333C40.5727 20.0312 39.8636 19.375 38.9968 19.375H32.6931C31.8263 19.375 31.1172 20.0312 31.1172 20.8333V22.2917H27.1774C26.1372 22.2917 25.2705 22.9042 24.9395 23.7646L21.835 32.0333C21.7247 32.3396 21.6616 32.6604 21.6616 32.9958V43.4375C21.6616 44.6479 22.7175 45.625 24.0255 45.625C25.3335 45.625 26.3894 44.6479 26.3894 43.4375V42.7083H45.3005V43.4375C45.3005 44.6333 46.3564 45.625 47.6644 45.625C48.9567 45.625 50.0283 44.6479 50.0283 43.4375V32.9958C50.0283 32.675 49.9652 32.3396 49.8549 32.0333L46.7504 23.7646ZM27.1774 38.3333C25.8693 38.3333 24.8135 37.3563 24.8135 36.1458C24.8135 34.9354 25.8693 33.9583 27.1774 33.9583C28.4854 33.9583 29.5412 34.9354 29.5412 36.1458C29.5412 37.3563 28.4854 38.3333 27.1774 38.3333ZM44.5125 38.3333C43.2045 38.3333 42.1487 37.3563 42.1487 36.1458C42.1487 34.9354 43.2045 33.9583 44.5125 33.9583C45.8206 33.9583 46.8764 34.9354 46.8764 36.1458C46.8764 37.3563 45.8206 38.3333 44.5125 38.3333ZM24.8135 31.0417L27.1774 24.4792H44.5125L46.8764 31.0417H24.8135Z" fill="white"/>
</svg>
