<svg width="30" height="31" viewBox="0 0 30 31" fill="none" xmlns="http://www.w3.org/2000/svg">
<g clip-path="url(#clip0_1003_4183)">
<path d="M15.0001 0.987061C7.0471 0.987061 0.600098 7.43406 0.600098 15.3871C0.600098 23.3401 7.0471 29.7871 15.0001 29.7871C22.9531 29.7871 29.4001 23.3401 29.4001 15.3871C29.4001 7.43406 22.9531 0.987061 15.0001 0.987061ZM20.8576 12.7831C20.8636 12.9061 20.8651 13.0291 20.8651 13.1491C20.8651 16.8991 18.0136 21.2206 12.7966 21.2206C11.255 21.2231 9.74555 20.7804 8.4496 19.9456C8.6701 19.9726 8.8966 19.9831 9.1261 19.9831C10.4551 19.9831 11.6776 19.5316 12.6481 18.7696C12.0567 18.7579 11.4836 18.5621 11.0088 18.2093C10.5339 17.8566 10.181 17.3644 9.9991 16.8016C10.4238 16.8823 10.8614 16.8654 11.2786 16.7521C10.6367 16.6223 10.0594 16.2744 9.64466 15.7676C9.22993 15.2607 9.00326 14.626 9.0031 13.9711V13.9366C9.3856 14.1481 9.8236 14.2771 10.2886 14.2921C9.6868 13.8915 9.26078 13.2761 9.09767 12.5718C8.93456 11.8675 9.04668 11.1274 9.4111 10.5031C10.1235 11.3791 11.012 12.0957 12.019 12.6065C13.0259 13.1174 14.1289 13.4111 15.2566 13.4686C15.1132 12.86 15.1749 12.2212 15.4321 11.6513C15.6893 11.0815 16.1275 10.6125 16.6787 10.3175C17.2299 10.0224 17.8631 9.91765 18.4799 10.0196C19.0968 10.1215 19.6627 10.4243 20.0896 10.8811C20.7244 10.7555 21.3331 10.5226 21.8896 10.1926C21.678 10.8498 21.2351 11.4078 20.6431 11.7631C21.2054 11.6953 21.7544 11.5442 22.2721 11.3146C21.8918 11.8844 21.4128 12.3817 20.8576 12.7831Z" fill="white"/>
</g>
<defs>
<clipPath id="clip0_1003_4183">
<rect width="30" height="30" fill="white" transform="translate(0 0.386963)"/>
</clipPath>
</defs>
</svg>
